<?xml version="1.0" standalone="no"?>
<!DOCTYPE svg PUBLIC "-//W3C//DTD SVG 1.1//EN" "http://www.w3.org/Graphics/SVG/1.1/DTD/svg11.dtd">
<svg xmlns="http://www.w3.org/2000/svg">
<metadata>Copyright (C) 2024 by original authors @ fontello.com</metadata>
<defs>
<font id="charifund" horiz-adv-x="1000" >
<font-face font-family="charifund" font-weight="400" font-stretch="normal" units-per-em="1000" ascent="850" descent="-150" />
<missing-glyph horiz-adv-x="1000" />
<glyph glyph-name="share" unicode="&#xe800;" d="M665 221c101 0 182-81 182-181 0-101-81-182-182-182-100 0-181 81-181 182 0 17 2 35 7 52l-185 118c-34-31-77-49-124-49-101 0-182 81-182 181 0 100 81 181 182 181 47 0 90-18 124-51l185 118c-5 17-7 36-7 54 0 101 81 182 181 182 101 0 182-81 182-182 0-100-81-181-182-181-49 0-92 19-126 49l-185-117c11-34 11-74 0-108l185-117c34 32 77 51 126 51z m0 514c-51 0-90-41-90-91 0-51 39-90 90-90 50 0 91 39 91 90 0 50-41 91-91 91z m-483-484c49 0 90 40 90 91 0 49-41 91-90 91-52 0-91-42-91-91 0-51 39-91 91-91z m483-302c50 0 91 39 91 91 0 49-41 90-91 90-51 0-90-41-90-90 0-52 39-91 90-91z" horiz-adv-x="871" />

<glyph glyph-name="arrow-long" unicode="&#xe801;" d="M4621 326c22 22 22 57 0 79l-354 354c-21 21-56 21-78 0-22-22-22-57 0-79l314-314-314-315c-22-21-22-57 0-78 22-22 57-22 78 0l354 353z m-4621-16l4582 0 0 111-4582 0 0-111z" horiz-adv-x="4667" />

<glyph glyph-name="reply" unicode="&#xe802;" d="M327 317l319-318c59-60 163-18 163 67v141c234-9 240-61 206-178-25-86 72-156 146-106 101 70 157 157 157 284 0 285-255 340-509 350v144c0 85-104 127-163 67l-319-318c-37-36-37-97 0-133z m68 67l318 319v-239c239 0 509-14 509-257 0-111-57-167-115-204 81 270-121 302-394 302v-239l-318 318z m-322 66c-38-36-38-97 0-133l318-318c40-42 100-36 135 0l-385 385 385 384c-35 36-95 42-135 0l-318-318z" horiz-adv-x="1318" />

<glyph glyph-name="clock" unicode="&#xe803;" d="M544 826c268 0 485-217 485-484 0-268-217-485-485-485-267 0-484 217-484 485 0 267 217 484 484 484z m0-875c215 0 391 174 391 391 0 214-176 390-391 390-217 0-390-176-390-390 0-217 173-391 390-391z m119 203l-166 121c-5 4-7 12-7 18v322c0 12 9 23 23 23h63c11 0 23-11 23-23v-277l129-96c12-8 14-22 6-33l-37-49c-8-12-22-14-34-6z" horiz-adv-x="1071" />

<glyph glyph-name="quotation" unicode="&#xe804;" d="M10 271l302-3-207-375 301-4 207 375 9 566-603 7-9-566z m775 558l-9-566 301-4-207-375 301-3 207 375 9 566-602 7z" horiz-adv-x="1400" />

<glyph glyph-name="circle-check" unicode="&#xe805;" d="M500-134c-184 0-353 106-434 272-83 168-58 377 62 521 119 143 312 206 493 159 20-5 32-25 27-45-5-20-26-32-46-27-152 40-316-13-417-135-101-121-122-299-53-441 70-141 223-233 379-229 157 4 300 100 363 243 37 84 45 179 22 268-5 20 7 41 27 46 20 5 40-7 45-27 27-105 18-218-26-317-75-170-243-283-429-288-4 0-8 0-13 0z m0 368c-9 0-19 4-26 11-15 14-15 38 0 52l446 447c15 14 38 14 53 0 14-15 14-38 0-53l-447-446c-7-7-16-11-26-11z m0 0c-9 0-19 4-26 11l-158 158c-15 14-15 38 0 52 15 15 38 15 53 0l157-158c15-14 15-38 0-52-7-7-16-11-26-11z" horiz-adv-x="1000" />

<glyph glyph-name="calendar" unicode="&#xe806;" d="M274 696h260v72c0 24 18 44 43 44 23 0 43-20 43-44v-72h72c63 0 116-52 116-115v-577c0-65-53-116-116-116h-577c-64 0-115 51-115 116v577c0 63 51 115 115 115h73v72c0 24 18 44 43 44 23 0 43-20 43-44v-72z m-187-332h144v101h-144v-101z m0-86v-115h144v115h-144z m230 0v-115h173v115h-173z m260 0v-115h144v115h-144z m144 187h-144v-101h144v101z m0-389h-144v-101h115c15 0 29 13 29 29v72z m-231 0h-173v-101h173v101z m-259 0h-144v-72c0-16 12-29 28-29h116v101z m259 389h-173v-101h173v101z" horiz-adv-x="846" />

<glyph glyph-name="quotation-two" unicode="&#xe807;" d="M479 829h-417c-33 0-60-27-60-60v-391c0-34 27-61 60-61h247c-28-138-151-240-292-240-8 0-15-7-15-15v-196c0-8 7-15 15-15 288 0 522 236 522 527v391c0 33-27 60-60 60z m30-451c0-269-213-489-477-497v166c74 3 145 32 201 81 59 53 97 124 108 202 1 5 0 9-3 12-3 4-7 6-11 6h-265c-17 0-30 13-30 30v391c0 17 13 30 30 30h417c17 0 30-13 30-30v-391z m597 451h-418c-33 0-59-27-59-60v-391c0-34 26-61 59-61h248c-28-138-151-240-292-240-9 0-15-7-15-15v-196c0-8 6-15 15-15 287 0 522 236 522 527v391c0 33-27 60-60 60z m30-451c0-269-213-489-478-497v166c74 3 145 32 201 81 59 53 98 124 109 202 1 5-1 9-3 12-3 4-7 6-12 6h-265c-16 0-30 13-30 30v391c0 17 14 30 30 30h418c16 0 30-13 30-30v-391z" horiz-adv-x="1175" />

<glyph glyph-name="award" unicode="&#xe808;" d="M971 778h-129c1 14 1 28 1 43 0 16-13 29-29 29h-628c-16 0-29-13-29-29 0-15 0-29 1-43h-129c-16 0-29-13-29-29 0-132 34-256 97-349 61-93 143-146 232-151 20-22 41-40 63-53v-130h-49c-59 0-108-49-108-108v-49h-2c-16 0-29-14-29-30 0-16 13-29 29-29h534c16 0 29 13 29 29 0 16-13 30-29 30h-2v49c0 59-49 108-108 108h-49v130c22 13 43 31 63 53 89 5 171 58 232 151 63 93 97 217 97 349 0 16-13 29-29 29z m-826-346c-51 78-81 179-86 287h102c11-133 42-257 91-355 8-16 16-31 24-44-48 18-93 56-131 112z m561-474v-49h-412v49c0 27 22 49 49 49h314c27 0 49-22 49-49z m-157 108h-98v104c16-4 32-6 49-6 17 0 33 2 49 6v-104z m18 174c-1-1-2-1-3-2-21-10-42-16-64-16-21 0-43 6-63 16-2 1-3 1-4 2-23 12-45 31-66 55-2 1-3 3-4 4-21 25-41 55-59 91-53 108-85 249-88 401h568c-3-152-34-293-88-401-18-36-38-66-59-91-1-1-2-3-3-4-21-25-44-43-67-55z m288 192c-37-56-83-94-131-112 8 13 16 28 24 44 49 98 81 222 91 355h102c-5-108-35-209-86-287z" horiz-adv-x="1000" />

<glyph glyph-name="documents" unicode="&#xe809;" d="M500-77c19 0 35-16 35-35 0-19-16-34-35-34h-369c-34 0-66 13-90 37-24 24-37 56-37 90v738c0 34 13 66 37 90 24 24 56 37 90 37h396c22 0 42-8 57-23l204-204c15-15 24-36 24-57v-166c0-19-16-34-35-34-19 0-35 15-35 34v166c0 3-1 6-3 8l-204 204c-2 2-5 3-8 3h-396c-16 0-30-6-41-17-11-11-17-25-17-41v-738c0-16 6-30 17-41 11-11 25-17 41-17h369z m12 866c0 19 15 34 34 34 19 0 35-15 35-34v-162c0-6 5-11 11-11h162c19 0 35-16 35-35 0-19-16-35-35-35h-162c-44 0-80 36-80 81v162z m-289-404c-19 0-35 15-35 34 0 19 16 35 35 35h369c20 0 35-16 35-35 0-19-15-34-35-34h-369z m0-162c-19 0-35 16-35 35 0 19 16 34 35 34h208c19 0 34-15 34-34 0-19-15-35-34-35h-208z m0-161c-19 0-35 15-35 34 0 19 16 35 35 35h208c19 0 34-16 34-35 0-19-15-34-34-34h-208z m548-41c38 0 69 31 69 69 0 39-31 70-69 70-39 0-70-31-70-70 0-38 31-69 70-69z m71 281c0 0 16-40 16-40 6-3 12-6 18-10l42 5c12 2 23-2 31-11 20-23 36-50 46-79 3-11 1-23-6-32 0 0-26-34-26-34 1-7 1-14 0-21l26-34c7-9 9-21 6-32-10-29-26-56-46-79-8-9-19-13-31-12 0 0-42 6-42 6-6-4-12-8-18-11l-16-39c-5-11-14-19-26-21-30-6-61-6-91 0-11 2-21 10-25 21 0 0-17 39-17 39-6 3-12 7-18 11l-42-6c-12-1-23 3-31 12-20 23-35 50-45 79-4 11-2 23 5 32 0 0 26 34 26 34 0 7 0 14 0 21l-26 34c-7 9-9 21-5 32 10 29 25 56 45 79 8 9 19 13 31 11 0 0 42-5 42-5 6 4 12 7 18 10l17 40c4 11 14 18 25 21 30 5 61 5 91 0 12-3 21-10 26-21z m-57-45c-9 1-19 1-29 0l-14-34c-3-8-10-15-19-18-10-5-19-10-28-17-7-5-16-8-25-7l-37 5c-5-8-10-16-14-25l22-29c6-7 8-16 7-25-1-11-1-22 0-33 1-9-1-18-7-25 0 0-22-29-22-30 4-8 9-17 14-25l37 5c9 1 18-1 25-7 9-6 18-12 28-16 9-4 16-10 19-19l14-33c10-1 20-1 29 0l14 33c4 9 10 15 19 19 10 4 19 10 28 16 7 6 16 8 26 7l36-5c5 8 10 17 14 26l-22 29c-6 7-8 16-7 25 2 11 2 22 0 33-1 9 1 18 7 25 0 0 22 29 22 29-4 9-9 17-14 25l-36-5c-10-1-19 2-26 7-9 7-18 12-28 17-9 3-15 10-19 18l-14 34z" horiz-adv-x="1000" />

<glyph glyph-name="review" unicode="&#xe80a;" d="M633 413c0 16-14 30-30 30h-326c-16 0-29-14-29-30 0-16 13-29 29-29h326c16 0 30 13 30 29z m-356-120c-16 0-29-13-29-29 0-17 13-30 29-30h173c16 0 30 13 30 30 0 16-14 29-30 29h-173z m551 118c-17 0-30-13-30-29v-240c0-44-36-81-81-81h-198c-7 0-13-2-18-6l-171-128c-4-4-8-2-10-1-3 1-6 3-6 9l3 95c1 9-2 16-8 22-5 6-13 9-21 9h-138c-44 0-81 37-81 81v392c0 45 37 81 81 81h365c17 0 30 14 30 30 0 16-13 30-30 30h-365c-77 0-140-64-140-141v-392c0-77 63-140 140-140h107l-2-65c-1-27 13-52 37-64 10-5 21-8 32-8 15 0 29 5 42 14l163 123h188c77 0 140 63 140 140v240c0 16-13 29-29 29z m160 282c-6 17-19 29-36 33l-75 19-42 66c-18 30-66 30-84 0l-41-66-76-19c-17-4-30-16-35-33-6-16-2-34 9-47l50-60-5-77c-2-18 6-34 20-44 9-6 19-10 29-10 7 0 13 1 19 4l72 29 73-29c16-7 33-4 47 6 14 10 22 26 21 44l-6 77 51 60c11 13 14 31 9 47z m-113-78c-5-6-7-13-6-21l5-75-70 28c-3 2-7 3-11 3-3 0-7-1-11-3l-69-28 5 75c1 8-2 15-7 21l-48 58 73 18c7 2 14 6 18 13l39 63 40-63c4-7 10-11 18-13l73-18-49-58z" horiz-adv-x="1000" />

<glyph glyph-name="support-hand" unicode="&#xe80b;" d="M498 723c11 0 20 9 20 20v87c0 11-9 20-20 20-11 0-19-9-19-20v-87c0-11 8-20 19-20z m481-549l-35 35c-12 12-28 19-46 19-11 0-22-3-32-8l-65 65 3 4c27 26 27 70 0 96-9 10-21 16-34 19 2 6 3 12 3 19 0 18-7 35-20 48-10 9-22 16-35 18 2 7 3 13 3 20 0 18-7 35-20 48-10 9-21 16-34 18 7 23 1 49-17 68-15 15-36 21-56 19l-130 25c-19 3-44 6-60-8-1-1-2-2-3-3-24 8-52 3-71-16-13-13-20-30-20-48 0-7 1-13 2-20-13-2-24-9-34-18-13-13-20-30-20-48 0-7 1-13 3-19-13-3-25-9-34-19-13-13-20-30-20-48 0-14 4-27 12-39-10-3-19-8-27-16-26-26-26-70 0-96l4-4-66-65c-24 12-54 7-74-13l-35-34c-12-13-19-29-19-47 0-17 7-34 19-46l43-44c8-7 21-7 28 0 8 8 8 21 0 28l-43 44c-5 4-8 11-8 18 0 7 3 14 8 19l35 34c8 9 22 10 32 4 0-1 1-2 2-3 2-1 4-3 6-4l199-199c1-2 2-4 4-6 2-1 4-3 6-3 4-5 6-11 6-18 0-7-3-13-7-18l-35-35c-10-10-27-10-37 0l-44 43c-7 8-20 8-28 0-7-7-7-20 0-28l44-43c13-13 29-19 46-19 17 0 34 6 47 19l34 35c13 12 20 29 20 46 0 13-4 25-10 35l73 74c0 0 0 0 0 0 9 9 32 7 55 5 16-1 34-2 52 0l81-81c-6-9-8-20-8-31 0-18 6-34 19-46l35-35c12-13 28-19 46-19 17 0 34 6 46 19l211 210c13 13 19 29 19 47 0 17-7 34-19 46z m-522 474l85-16-51-51c-8 4-18 11-30 22-16 16-28 34-29 45 0 0 0 0 0 0 0 0 0 0 0 0 0 1 0 1 0 2 2 0 9 1 25-2z m-100-16c10 10 26 11 37 3 6-26 29-51 40-60 7-8 32-29 56-35 4-5 5-11 5-17 0-8-3-15-8-20-5-6-13-9-20-9-8 0-15 3-21 9l0 0 0 0-89 88c-5 6-8 13-8 21 0 7 3 15 8 20z m-51-86c5 6 13 9 20 9 8 0 15-3 21-9l71-71c12-11 12-30 0-41-5-5-12-8-20-8-8 0-15 3-21 8l0 0-54 54c0 0 0 0 0 0l-17 17c-5 6-8 13-8 21 0 7 3 15 8 20z m-51-86c5 6 12 9 20 9 8 0 15-3 20-9l55-54c5-5 8-12 8-20 0-8-3-15-8-21-6-5-13-8-21-8-8 0-15 3-20 8l-20 20c0 0 0 0 0 0l-34 35c-6 5-9 12-9 20 0 8 3 15 9 20z m-35-103c6 6 13 9 21 9 7 0 15-3 20-9l20-19c5-6 8-13 8-21 0-8-3-15-8-20-6-6-13-9-21-9-7 0-15 3-20 9l-2 2c-1 0-1 0-1 0 0 0 0 0 0 0l-17 17c-11 12-11 30 0 41z m401-223c-8 7-20 7-28 0l-17-18c-17-16-47-14-76-12-32 2-64 4-86-18l-72-72-181 181 64 64c10-7 23-10 35-10 19 0 36 7 49 20 13 13 20 30 20 48 0 0 0 0 0 1 0 0 0 0 0 0 18 0 36 7 48 20 13 12 20 29 20 48 0 0 0 0 0 0 1 0 1 0 1 0 18 0 35 7 48 20 14 14 20 31 20 49 0 0 0 0 1 0 18 0 35 7 48 20 13 13 20 30 20 48 0 13-4 25-10 36l56 56c4 4 9 7 15 8 0 0 1 0 1 0 9 1 18-2 25-8 11-11 11-30 0-41l-17-17c0 0 0 0 0 0l-20-20c-8-8-8-20 0-28 8-7 20-7 28 0l17 17c0 0 0 0 0 0l3 3c11 11 29 11 40 0 6-5 9-13 9-20 0-8-3-15-9-21l-17-17c0 0 0 0 0 0l-20-20c-7-7-7-20 0-28 8-7 20-7 28 0l20 20c5 6 13 9 20 9 8 0 15-3 21-9 5-5 8-13 8-20 0-8-3-15-8-21l-34-34c-8-8-8-20 0-28 3-4 8-6 13-6 5 0 10 2 14 6l17 17c0 0 0 0 0 0 6 6 13 9 21 9 8 0 15-3 20-9 12-11 12-29 0-41l-17-17c0 0 0 0 0 0 0 0 0 0 0 0l-27-27c-8-7-8-20 0-28 4-3 9-5 14-5 5 0 10 2 14 5l13 14 64-64-181-181-65 65c4 3 9 6 13 10l17 18c8 8 8 20 0 28z m330-25l-210-210c-5-5-12-8-19-8-7 0-14 3-19 8l-34 34c-5 5-8 12-8 19 0 7 3 14 8 18l210 211c5 5 12 8 19 8 7 0 14-3 19-8l34-35c5-4 8-11 8-18 0-7-3-14-8-19z m-714 631c4-4 9-6 14-6 5 0 10 2 14 6 8 7 8 20 0 27l-72 72c-7 8-20 8-28 0-7-8-7-20 0-28l72-71z m509-6c5 0 10 2 13 6l72 71c8 8 8 20 0 28-8 8-20 8-28 0l-71-72c-8-7-8-20 0-27 4-4 9-6 14-6z m-623-730c-8-8-8-20 0-28l0 0c4-4 9-6 14-6 5 0 10 2 14 6 7 8 7 20 0 28-8 8-21 8-28 0z m546 158c3 0 6 1 9 2 10 5 14 17 9 27-5 9-17 13-27 8l0 0c-9-5-13-16-8-26 3-7 10-11 17-11z" horiz-adv-x="1000" />

<glyph glyph-name="truck" unicode="&#xe80d;" d="M1240 467l-38 76c-14 27-41 44-71 44h-220v184c0 44-36 79-79 79h-753c-44 0-79-35-79-79v-684c0-44 35-79 79-79h79c0-41 15-78 40-106h-172c-14 0-26-11-26-26 0-14 12-26 26-26h1296c14 0 26 12 26 26 0 15-12 26-26 26h-67c25 28 40 65 40 106 0 1 0 3 0 4 31 11 53 40 53 75v145c0 31 6 2-108 235z m-40-38l79-158h-263v158h184z m-1147-211h52v-52h-52v52z m263-316c-58 0-105 48-105 106 0 7 0 14 2 21 10 49 53 84 103 84 50 0 93-35 103-84 0 0 0 0 0 0 2-7 2-14 2-21 0-58-47-106-105-106z m0 264c-68 0-127-43-149-105h-88c-14 0-26 11-26 26v26h79c14 0 26 12 26 26v106c0 14-12 26-26 26h-79v500c0 15 12 27 26 27h753c14 0 26-12 26-27 0-19 0-647 0-710h-393c-22 62-82 105-149 105z m118-264c25 28 40 65 40 106 20 0 497 0 505 0 0-41 16-78 41-106h-586z m703 0c-58 0-105 48-105 106 0 7 1 14 2 21 10 49 53 84 103 84 50 0 93-35 103-84 0 0 0 0 0 0 2-7 3-14 3-21 0-58-48-106-106-106z m158 185c0-9-4-17-11-21-23 59-81 100-147 100-67 0-127-43-149-105h-77v473h220c10 0 19-5 24-14l19-38h-184c-15 0-27-12-27-27v-210c0-15 12-27 27-27h305v-131z" horiz-adv-x="1348" />

<glyph glyph-name="ship" unicode="&#xe80e;" d="M953 193c-7 4-16 4-21-2-65-70-148-125-241-159-150-56-325-51-460 12l13 42c1 5 1 10-2 14-3 5-8 7-13 7 0 0 0 0 0 0-82 0-154 13-196 35-4 3-10 3-15 0-5-3-8-8-8-13-4-98 80-214 141-265 4-4 10-5 15-4 5 2 9 6 11 11l9 30c67-29 137-46 210-50 10 0 21 0 31 0 71 0 141 12 208 37 139 52 254 153 323 284 4 7 1 16-5 21z m-329-275c-145-53-301-46-441 20-2 1-4 1-7 1-2 0-4 0-6-1-4-2-8-6-9-10l-7-23c-47 46-102 126-111 198 53-21 118-27 164-28l-11-34c-2-8 1-16 8-20 73-36 157-57 245-60 86-3 174 11 253 41 58 21 112 50 160 85-63-75-144-134-238-169z m-467 337l319-188c3-1 6-2 9-2 2 0 5 1 8 2l319 188c5 3 8 9 8 14v376c0 6-3 11-8 14l-319 188c-5 3-11 3-17 0l-319-188c-5-3-8-8-8-14v-376c0-5 3-11 8-14z m24 362l288-169v-338l-288 169v338z m417-74l-288 169 61 36 288-169-61-36z m77 7v-110l-61-36 0 111 61 35z m-109-26l-81-48-288 169 82 48 287-169z m-65-414v338l81 48 0-120c0-6 3-11 8-14 3-1 5-2 8-2 3 0 6 1 8 2l93 55c5 3 8 8 8 13v139l81 48v-338l-287-169z m-16 705l287-170-81-48-288 169 82 49z" horiz-adv-x="969" />

<glyph glyph-name="credit-card" unicode="&#xe80f;" d="M969 225c-17 0-31-14-31-31v-219h-875v375h343c18 0 32 14 32 31 0 18-14 32-32 32h-343v125h343c18 0 32 14 32 31 0 17-14 31-32 31h-343c-35 0-63-28-63-62v-563c0-35 28-63 63-63h875c34 0 62 28 62 63v219c0 17-14 31-31 31z m-688 0h-125c-17 0-31-14-31-31 0-17 14-31 31-31h125c18 0 32 14 32 31 0 17-14 31-32 31z m700 466l-219 94c-8 3-16 3-24 0l-219-94c-12-5-19-16-19-28v-125c0-172 64-273 234-371 5-3 11-4 16-4 5 0 11 1 16 4 170 98 234 198 234 371v125c0 12-7 23-19 28z m-43-153c0-145-48-224-188-308-140 84-187 163-187 308v104l187 80 188-80v-104z m-75 55c-13 11-33 9-44-5l-98-123-39 59c-9 14-29 18-43 8-14-9-18-29-9-43l63-94c5-8 14-13 24-14 1 0 1 0 2 0 9 0 18 5 24 12l125 156c11 14 9 33-5 44z" horiz-adv-x="1000" />

<glyph glyph-name="pack" unicode="&#xe810;" d="M866 260l-77 132c-1 3-4 6-8 7l-160 63c5 16 7 34 7 53 0 103-84 188-188 188-103 0-188-85-188-188 0-19 3-37 8-53l-161-63c-3-1-6-4-8-7l-76-132c-2-4-3-8-1-13 1-4 5-8 9-9l66-26v-215c0-6 4-12 10-15l336-130c2-1 3-1 5-1 2 0 4 0 6 1l335 130c6 3 10 9 10 15v215l67 26c4 1 7 5 9 9 1 5 1 9-1 13z m-426 411c87 0 157-70 157-156 0-87-70-157-157-157-86 0-156 70-156 157 0 86 70 156 156 156z m0-344c75 0 139 43 170 106l123-48-293-114-292 114 123 48c30-63 95-106 169-106z m-389-67l61 105 306-119-61-105-306 119z m70-60l237-93c8-2 16 0 20 7l47 82v-307l-304 119v192z m639-192l-304-119v307l47-82c4-7 12-9 19-7l238 93v-192z m-237 133l-60 105 306 119 60-105-306-119z m-122 272c11 0 21 5 29 12l122 122c16 16 16 42 0 57-8 8-18 12-29 12-11 0-21-4-28-12l-90-89-24 30c-8 10-19 15-32 15-9 0-18-3-25-9-18-14-20-39-7-57l51-64c8-10 20-17 33-17z m-58 114c3 2 5 2 6 2 3 0 6-1 7-4l35-43c3-4 7-6 12-6 4-1 8 1 12 4l102 102c1 2 4 3 6 3 3 0 5-1 7-3 3-3 3-9 0-13l-122-122c-2-2-5-2-7-2-3 0-5 1-7 4 0 0-1 0-1 0l-51 65c-3 4-3 10 1 13z m82 233v73c0 9 7 16 15 16 9 0 16-7 16-16v-73c0-8-7-15-16-15-8 0-15 7-15 15z m-158 25c-4 7-2 17 6 21 7 5 17 2 21-5l37-64c4-7 1-17-6-21-3-2-5-2-8-2-5 0-11 3-13 8l-37 63z m-118-100c4 8 14 11 21 6l64-36c7-5 10-14 5-22-3-5-8-8-13-8-3 0-6 1-8 3l-63 36c-8 4-10 14-6 21z m-47-166c0 9 7 16 16 16h73c8 0 15-7 15-16 0-9-7-16-15-16h-73c-9 0-16 7-16 16z m447 214l37 64c4 7 13 10 21 5 7-4 10-14 6-21l-37-63c-3-6-8-8-13-8-3 0-6 0-8 2-8 4-10 14-6 21z m88-107c-4 8-1 17 6 22l63 36c8 4 17 2 22-6 4-7 2-17-6-21l-63-37c-3-1-5-2-8-2-6 0-11 3-14 8z m45-100h73c8 0 15-7 15-15 0-9-7-16-15-16h-73c-9 0-16 7-16 16 0 8 7 15 16 15z" horiz-adv-x="881" />

<glyph glyph-name="heart" unicode="&#xe811;" d="M1001 720c-116 120-305 120-422 0l-27-28-27 28c-116 120-305 120-421 0-114-118-115-305-2-434 103-119 407-374 420-385 8-7 19-11 29-11 1 0 1 0 1 0 11-1 22 3 31 11 13 11 317 266 420 385 113 129 112 316-2 434z m-68-369c-81-92-301-282-381-350-79 68-300 258-380 350-79 90-79 219-2 300 40 41 92 61 144 61 53 0 105-20 145-61l59-62c7-7 16-11 25-13 15-3 32 1 44 13l59 62c80 82 209 82 288 0 78-81 77-210-1-300z" horiz-adv-x="1105" />

<glyph glyph-name="calendar-two" unicode="&#xe812;" d="M837 687h-48v96c0 12-6 25-15 34-9 9-21 14-34 14-12 0-25-5-34-14-9-9-14-22-14-34v-96h-384v96c0 12-5 25-14 34-9 9-22 14-34 14-13 0-25-5-34-14-9-9-14-22-14-34v-96h-48c-39 0-75-16-102-43-28-27-43-63-43-102v-48h962v48c0 39-15 75-42 102-27 27-64 43-102 43z m-818-673c0-39 15-76 43-103 27-27 63-42 102-42h673c38 0 75 15 102 42 27 27 42 64 42 103v384h-962v-384z" horiz-adv-x="1000" />

<glyph glyph-name="location" unicode="&#xe813;" d="M367 850c-194 0-352-158-352-352 0-65 18-129 53-184l279-450c5-9 14-14 25-14 0 0 0 0 0 0 10 0 19 5 25 14l272 454c32 55 49 117 49 180 0 194-157 352-351 352z m251-502l-247-412-254 408c-28 47-44 100-44 154 0 162 132 294 294 294 161 0 293-132 293-294 0-52-15-104-42-150z m-251 326c-97 0-176-79-176-176 0-96 78-175 176-175 99 0 175 80 175 175 0 97-78 176-175 176z m0-293c-65 0-118 53-118 117 0 65 53 118 118 118 64 0 117-53 117-118 0-63-51-117-117-117z" horiz-adv-x="733" />

<glyph glyph-name="email" unicode="&#xe814;" d="M1200 813h-1084c-64 0-116-52-116-116v-694c0-64 52-116 116-116h1084c64 0 116 52 116 116v694c0 64-52 116-116 116z m-18-77c-37-38-476-479-494-497-15-15-45-15-60 0l-495 497h1049z m-1105-719v666l332-333-332-333z m56-53l330 331 110-110c46-45 124-45 169 0l111 110 329-331h-1049z m1106 53l-332 333 332 333v-666z" horiz-adv-x="1316" />

<glyph glyph-name="phone" unicode="&#xe815;" d="M790 231c-20 21-45 32-71 32-26 0-51-11-72-32l-67-67c-5 3-11 6-16 9-8 4-15 7-21 11-62 40-119 91-174 158-26 34-44 62-57 90 18 16 34 32 49 48 6 6 12 12 18 18 44 45 44 102 0 146l-58 58c-6 6-13 13-19 20-13 13-26 27-40 39-20 20-45 31-71 31-25 0-50-11-71-31-1 0-1 0-1 0l-72-73c-27-27-42-60-45-98-6-61 13-119 27-156 34-93 85-178 161-270 93-110 204-197 331-259 48-23 113-50 186-55 4 0 9 0 13 0 49 0 90 17 122 52 0 1 0 1 0 1 11 14 24 26 37 39 9 8 19 17 28 27 21 22 32 47 32 73 0 26-11 51-33 72l-116 117z m76-223c0 0 0 0 0 0-8-9-17-17-26-25-14-14-27-27-41-43-21-22-46-33-79-33-3 0-6 0-10 0-62 4-121 28-164 49-120 58-225 140-312 244-72 87-120 167-152 253-19 53-27 94-23 133 2 24 11 45 29 62l72 72c10 10 21 15 32 15 13 0 24-8 31-15 0 0 0 0 0 0 13-12 25-25 38-38 7-7 14-13 20-20l58-58c22-22 22-43 0-65-6-7-12-13-18-19-18-18-35-35-53-51-1-1-1-1-1-1-18-18-15-36-11-48 0-1 0-1 0-2 15-36 36-70 69-111l0 0c58-72 119-128 187-171 9-5 18-10 26-14 8-4 15-7 21-11 1-1 2-1 3-2 7-3 13-5 20-5 18 0 29 11 33 15l72 72c7 7 18 16 32 16 13 0 23-9 30-16 0 0 0 0 0 0l117-117c21-21 21-43 0-66z m-326 604c56-9 106-35 146-75 40-41 66-91 76-146 2-14 14-24 28-24 1 0 3 1 5 1 15 2 26 17 23 33-11 67-43 128-91 176-49 48-110 80-177 91-15 3-30-8-33-23-2-15 8-30 23-33z m459-203c-19 110-71 210-151 290-79 80-180 132-290 151-15 2-30-8-33-24-2-15 8-30 24-33 98-16 188-63 259-134 72-71 118-161 135-259 2-14 14-24 28-24 1 0 3 0 5 0 15 3 26 18 23 33z" horiz-adv-x="1000" />

<glyph glyph-name="message" unicode="&#xe816;" d="M647 687c-57 23-118 34-183 34-65 0-126-11-182-34-57-22-102-52-135-89-34-38-50-79-50-122 0-35 11-69 34-101 22-32 54-60 95-84l61-36-22-54c15 9 28 17 40 25l28 20 34-6c33-6 65-9 97-9 65 0 126 11 183 33 56 22 101 52 134 90 34 38 50 78 50 122 0 43-16 84-50 122-33 37-78 67-134 89z m-409 71c70 30 145 44 226 44 81 0 156-14 225-44 70-29 124-68 164-118 40-51 60-105 60-164 0-59-20-114-60-164-40-50-94-90-164-119-69-29-144-44-225-44-36 0-74 4-112 10-53-37-112-64-177-81-16-4-34-7-55-10h-2c-5 0-9 1-14 5-3 3-6 8-7 13 0 1 0 3 0 4 0 2 0 3 0 4 0 2 1 3 1 4 1 1 2 3 2 3 0 1 1 2 2 4 1 1 2 2 2 3 1 1 2 2 4 3 1 2 2 3 2 3 2 3 7 8 15 16 8 8 13 14 16 19 4 4 9 10 14 18 7 8 12 16 16 25 5 8 10 18 14 28-53 31-94 68-125 113-30 45-45 92-45 143 0 59 20 113 60 164 40 50 94 89 163 118z m750-701c5-10 9-20 13-28 5-9 10-17 16-25 6-8 11-14 15-18 3-5 9-11 16-19 8-8 13-14 15-16 0-1 1-2 3-3 1-2 2-3 2-3 1-1 2-2 3-3 1-2 2-3 2-4 1-1 1-2 1-3 1-1 2-3 2-4 0-1 0-3 0-4 0-2 0-3 0-4-2-6-4-11-9-14-4-4-8-5-14-5-21 3-39 7-54 10-66 17-125 45-178 82-38-7-75-10-112-10-115 0-216 28-301 84 25-2 43-2 56-2 69 0 134 9 197 28 63 19 119 47 169 83 53 39 94 84 122 135 29 51 43 105 43 162 0 32-5 65-15 97 55-31 98-68 130-114 32-45 48-94 48-147 0-51-15-98-45-143-30-44-72-82-125-112z" horiz-adv-x="1214" />

<glyph glyph-name="star" unicode="&#xe817;" d="M527 850l123-377h396l-321-233 123-377-321 233-320-233 122 377-320 233h396l122 377z" horiz-adv-x="1055" />

<glyph glyph-name="make-donation" unicode="&#xe819;" d="M462 850l-3-34c11-1 22-2 33-4l6 34c-12 2-24 3-36 4z m-37 0c-12-1-25-2-37-4l6-34c11 2 22 3 33 4l-2 34z m176-43l-18-29c9-6 18-12 27-19l21 27c-10 7-20 14-30 21z m57-45l-24-24c8-8 15-16 22-25l27 21c-8 10-16 19-25 28z m-124 75l-10-33c10-3 20-7 30-11l14 31c-11 5-23 9-34 13z m-181 0c-12-4-24-8-35-13l14-31c10 4 20 8 31 12l-10 32z m-67-30c-11-6-21-13-31-21l21-27c9 7 18 13 27 19l-17 29z m-58-45c-9-9-17-18-25-27l27-21c7 8 14 16 22 24l-24 24z m108-597l-153 153-63 64v205c0 33-27 60-60 60-33 0-59-27-59-60v-374c0-4 1-8 3-11l150-190v-148h34v153c0 4-1 8-4 11l-149 191v368c0 14 11 26 25 26 14 0 26-12 26-26v-213c0-4 2-8 5-12l25-24c-27-8-47-33-47-63 0-17 7-33 19-46l105-105 24 24-105 105c-6 6-9 14-9 22 0 18 14 31 31 31 8 0 16-3 22-9l151-151v-282h34v289c0 5-2 9-5 12z m489 482c-32 0-59-27-59-60v-205l-63-64-153-153c-3-3-5-7-5-12v-289h34v282l148 148 3 3c6 6 14 9 22 9 17 0 31-13 31-31 0-8-3-16-9-22l-105-105 24-24 105 105c12 13 19 29 19 46 0 30-20 55-47 63l25 24c3 4 5 8 5 12v213c0 14 11 26 25 26 15 0 26-12 26-26v-368l-149-191c-3-3-4-7-4-11v-153h34v148l149 190c3 3 4 7 4 11v374c0 33-27 60-60 60z m-382 136c-131 0-238-107-238-238 0-132 107-239 238-239 131 0 238 107 238 239 0 131-107 238-238 238z m17-35c67-6 125-44 158-99l-90-51-68 41v109z m48-177l-27-94h-76l-27 94 65 39 65-39z m-82 177v-109l-68-41-90 51c33 55 91 93 158 99z m-187-203c0 26 5 51 14 74l90-52 30-103-69-68c-40 37-65 90-65 149z m204-205c-42 0-80 13-112 34l68 69h88l68-69c-32-21-71-34-112-34z m139 56l-69 68 29 103 91 52c9-23 14-48 14-74 0-59-25-112-65-149z m-28-100c-10-4-20-8-30-11l10-33c11 4 23 8 34 13l-14 31z m-62-19c-11-2-22-3-33-4l2-34c12 1 25 2 37 4l-6 34z m-161 19l-14-31c11-5 23-9 35-13l10 33c-11 3-21 7-31 11z m63-19l-6-34c12-2 24-3 36-4l2 34c-11 1-22 2-32 4z" horiz-adv-x="900" />

<glyph glyph-name="heart-hand" unicode="&#xe81b;" d="M488 379l-212-213c-13-12-34-12-47 0-12 13-13 34 0 47l213 213c9 8 9 22 0 30-8 9-22 9-31 0l-212-212c-13-13-34-13-47 0-13 12-13 33 0 46l292 292 1 34-32-4-174-125-140-186c0 0 2-15 1-21-8-47 29-90 76-89 0-44 35-78 77-77 0-43 34-78 76-78 21 0 40 8 54 23l38 38c9 8 9 22 0 30-8 9-22 9-30 0l-38-38c-13-12-34-12-47 0-12 13-13 34 0 47l213 213c9 8 9 22 0 30-8 9-22 9-31 0z m531 354c-123 123-324 123-447 0-43-43-29-29-32-32-8-9-8-22 0-31 8-8 22-9 31 0 3 3 29 29 32 32 106 107 279 107 385 0 106-105 107-277 0-384l-167-159c-9-8-9-22-1-31 9-8 22-9 31-1 177 169 167 159 168 160 125 125 121 325 0 446z m-168-497l-122 122c-30 30-78 30-108 0-15-15-22-35-22-55-43 1-78-34-77-77-42 1-78-33-77-77-42 1-77-33-77-76 0-20 8-39 22-54l123-122c15-15 34-23 54-23 42 0 76 35 76 77 43 0 77 35 77 78 43-1 77 34 77 77 21-1 40 8 54 22 30 30 30 78 0 108z m-407 346l97-97c33-34 87-34 121-2 36 33 37 90 2 125l-112 112 0 0-13 13c-123 123-323 123-446 0-124-123-124-323 0-446l7-8c3 16 10 30 22 42l291 291 31-30z" horiz-adv-x="1111" />

<glyph glyph-name="support" unicode="&#xe81c;" d="M625 74c169 0 307 138 307 307 0 82-32 160-90 217-57 58-136 90-217 91-169 0-307-138-307-308 0-77 29-152 82-209l-32-118c-2-7-1-15 1-21 2-7 7-13 12-18 6-4 13-7 20-7 7-1 15 1 21 5l124 71c26-6 52-10 79-10z m-102 82l-61-36 14 54c2 6 2 13 0 19-2 7-5 13-10 17-24 22-43 48-56 78-12 29-19 61-19 93 0 50 16 98 45 138 29 40 70 69 117 85 47 15 97 15 144 0 47-16 88-45 117-85 29-40 45-88 45-138 0-49-16-97-45-137-29-40-70-70-117-85-47-15-97-15-144 0-5 1-10 2-15 1-6 0-10-2-15-4v0z m707 199c0 15 1 31 0 47-2 45-21 87-54 119-33 31-76 48-121 47-73 166-238 282-430 282-192 0-357-116-430-282-45 1-88-16-121-47-33-32-52-74-54-119-1-16 0-32 0-47 0-16 1-32 0-50-2-47 15-92 46-126 31-34 74-54 121-56 2 0 5 0 8 0 23 0 45 4 67 13 9 4 16 11 19 20 4 9 4 19 0 28 0 1-1 3-2 5-32 59-50 125-50 192 0 218 178 396 396 396 218 0 396-178 396-396 0-92-32-182-91-253-59-71-141-119-232-136-10 22-26 40-48 50-21 11-45 14-68 8-23-5-43-18-58-37-14-19-21-43-20-66 1-24 10-46 26-64 16-17 37-29 61-32 23-4 47 1 67 14 20 12 36 31 43 54 65 10 126 34 181 70 55 36 101 83 137 138 12-3 24-4 36-4 3 0 6 0 8 0 23 1 46 6 66 16 21 10 40 23 55 40 16 17 28 37 36 58 7 22 11 45 10 68-1 18 0 34 0 50z m-1040-159c-27 1-52 13-70 33-18 20-28 46-27 72 1 21 1 40 0 56 0 14 0 28 0 42 1 21 9 42 23 59 14 17 32 29 53 34-23-95-16-194 21-285l0 0c1-4 3-7 4-11-1 0-3 0-4 0z m415-273c-5 0-11 2-16 5-4 3-8 7-10 12-2 6-3 11-2 17 1 5 4 10 8 14 4 4 9 7 15 8 5 1 11 1 16-2 5-2 10-5 13-10 3-5 4-10 4-16v0c0-7-3-14-8-20-5-5-12-8-20-8z m552 378c0-13-2-26-6-39-5-12-12-23-21-33-9-10-20-18-32-24-12-5-25-8-38-9-1 0-3 0-4 0 0 0 0 0 0 0 40 94 49 198 25 296 21-5 40-17 53-34 14-17 22-38 23-59 1-14 0-28 0-42-1-16-1-35 0-56z m-618 84c1-1 1-2 1-4 0-1 0-2-1-3 0-1 0-3 0-4 0-1-1-2-1-3 0-1-1-3-1-4-1-1-1-2-2-3 0-1-1-2-2-3 0-1-1-2-2-3 0-1-1-2-2-3-1 0-2-1-3-2-1-1-2-1-3-2-1-1-2-1-3-2-1-1-2-1-3-1-1-1-2-1-3-2-2 0-3 0-4-1-1 0-2 0-3 0-3 0-5 0-8 0-1 0-2 0-3 0-1 1-3 1-4 1-1 1-2 1-3 2-1 0-2 0-3 1-1 1-2 1-3 2-1 1-2 1-3 2-1 1-2 2-3 2-1 1-2 2-2 3-1 1-2 2-2 3-1 1-2 2-2 3-1 1-1 2-2 3 0 1-1 3-1 4 0 1-1 2-1 3 0 1 0 3 0 4-1 1-1 2-1 3 0 2 0 3 1 4 0 1 0 2 0 3 0 2 1 3 1 4 0 1 1 2 1 3 1 1 1 3 2 4 1 2 2 4 4 6 0 0 1 1 2 2 1 1 2 2 3 3 1 0 2 1 3 2 1 0 2 1 3 2 1 0 2 1 3 1 1 1 2 1 3 1 2 1 3 1 4 1 5 1 9 1 14 0 1 0 2 0 4-1 1 0 2 0 3-1 1 0 2-1 3-1 1-1 2-2 3-2 1-1 2-2 3-2 1-1 2-2 3-3 1-1 2-2 2-2 2-2 3-4 4-6 1-1 1-3 2-4 0-1 1-2 1-3 0-1 1-2 1-4 0-1 0-2 0-3v0z m49-4c0 5 1 10 3 14 2 5 5 9 8 12 4 4 8 6 12 8 4 2 9 3 14 3h0c7 0 14-2 20-6 6-4 11-10 14-17 3-6 3-14 2-21-1-7-5-13-10-19-5-5-12-8-19-10-7-1-14 0-21 2-7 3-12 8-16 14-4 6-7 13-7 20z m123-3c0 1-1 2-1 3 0 2 1 3 1 4 0 1 0 2 0 3 0 2 1 3 1 4 0 1 1 2 1 3 1 1 1 3 2 4 1 2 2 4 4 6 1 0 1 1 2 2 1 1 2 2 3 3 1 0 2 1 3 2 1 0 2 1 3 2 1 0 2 1 3 1 1 1 2 1 3 1 2 1 3 1 4 1 3 1 7 1 11 1 1 0 2-1 3-1 1 0 3 0 4-1 1 0 2 0 3-1 1 0 2-1 3-1 1-1 2-2 3-2 1-1 2-2 3-2 1-1 2-2 3-3 1-1 2-2 2-2 1-1 2-2 3-3 0-1 1-2 1-3 1-1 1-3 2-4 0-1 1-2 1-3 0-1 1-2 1-4 0-1 0-2 1-3 0-1 0-2 0-4 0-1 0-2 0-3-1-1-1-3-1-4 0-1-1-2-1-3 0-1-1-3-1-4-1-1-1-2-2-3 0-1-1-2-1-3-1-1-2-2-3-3 0-1-1-2-2-3-1 0-2-1-3-2-1-1-2-1-3-2-1-1-2-1-3-2-1-1-2-1-3-1-1-1-2-1-3-2-1 0-3 0-4-1-2 0-5 0-7 0-1 0-2 0-4 0-1 0-2 0-3 0-1 1-2 1-4 1-1 1-2 1-3 2-1 0-2 0-3 1-1 1-2 1-3 2-1 1-2 1-3 2-1 1-2 2-3 2-1 1-1 2-2 3-1 1-2 2-2 3-1 1-2 2-2 3-1 1-1 2-2 3 0 1-1 3-1 4 0 1-1 2-1 3 0 1 0 3 0 4z" horiz-adv-x="1250" />

<glyph glyph-name="play" unicode="&#xe81d;" d="M1-131l0 944 818-472-818-472z" horiz-adv-x="824" />

<glyph glyph-name="user" unicode="&#xe81e;" d="M500 807c-254 0-460-209-460-465 0-257 206-465 460-465 254 0 460 208 460 465 0 256-206 465-460 465z m0-869c-220 0-399 181-399 404 0 222 179 403 399 403 220 0 400-181 400-403 0-223-180-404-400-404z m104 428c34 30 55 73 55 121 0 89-71 161-159 161-88 0-159-72-159-161 0-48 21-91 55-121-64-21-109-54-133-98-41-73-9-149-7-152 6-16 24-23 40-16 15 7 22 25 15 41 0 0-21 51 5 97 25 45 89 76 184 88 95-12 158-42 184-87 26-47 5-97 5-98-7-16 0-34 15-41 4-2 9-3 13-3 11 0 23 7 28 19 1 3 34 79-8 152-24 44-69 77-133 98z m-104 22c-54 0-98 44-98 99 0 55 44 99 98 99 54 0 98-44 98-99 0-55-44-99-98-99z" horiz-adv-x="1000" />

<glyph glyph-name="fund" unicode="&#xe81f;" d="M515 847c-27 0-64-5-93-17-24-10-42-26-49-46-5-15-3-36 5-57 6-17 15-33 24-48-31-8-54-35-54-69 0-19 8-37 22-50-27-21-51-50-73-82l-99 78c5 10 7 20 7 31 0 39-32 71-71 71-40 0-72-32-72-71 0-39 32-71 72-71 11 0 21 2 31 7 0-1 1-2 2-2l105-84c-1-2-2-3-2-4-26-48-47-101-62-154-1 0-2 0-3 0h-51c-10 28-37 47-68 47-39 0-71-31-71-71 0-39 32-71 71-71 31 0 58 20 68 48h42c-9-43-14-83-14-119 0-41 6-76 18-106l-64-32c-13 12-30 20-50 20-39 0-71-32-71-71 0-39 32-71 71-71 40 0 72 32 72 71 0 3-1 6-1 9l65 32c8-11 17-22 26-31 61-59 157-81 267-81 109 0 206 22 266 81 10 9 18 20 26 31l65-32c0-3 0-6 0-9 0-39 32-71 71-71 40 0 72 32 72 71 0 39-32 71-72 71-19 0-36-8-49-20l-64 32c11 30 18 65 18 106 0 36-5 76-14 119h42c10-28 36-48 67-48 40 0 72 32 72 71 0 40-32 71-72 71-31 0-57-19-67-47h-52c-1 0-1 0-2 0-15 53-36 106-62 154-1 1-2 2-3 4l106 84c1 0 1 1 2 2 9-5 20-7 31-7 39 0 71 32 71 71 0 39-32 71-71 71-40 0-72-32-72-71 0-11 3-21 7-31l-98-78c-22 32-47 61-73 82 13 13 21 31 21 50 0 34-22 61-53 69 8 15 17 31 23 48 8 21 10 42 5 57-6 20-24 36-48 46-29 12-67 17-93 17z m0-47c21 0 51-4 74-14 10-4 19-9 22-17 1-4 0-8-1-13-2-9-5-18-9-27-9-19-20-37-27-48h-118c-7 11-18 29-27 48-4 9-8 18-10 27-1 5-2 9-1 13 3 8 13 13 23 17 23 10 53 14 74 14z m-95-166h190c13 0 24-10 24-24 0-11-9-21-21-23-2 0-5 0-8 0h-180c-3 0-6 0-9 0-11 2-20 12-20 23 0 14 10 24 24 24z m-286-24c13 0 24-10 24-23 0-13-11-24-24-24-13 0-24 11-24 24 0 13 11 23 24 23z m762 0c13 0 23-10 23-23 0-13-10-24-23-24-13 0-24 11-24 24 0 13 11 23 24 23z m-472-71h181c44-23 82-72 113-129 51-93 82-211 82-297 0-65-19-112-52-145-53-52-138-68-233-68-96 0-181 16-233 68-34 33-53 80-53 145 0 86 32 204 82 297 32 57 70 106 113 129z m91-142c-13 0-24-10-24-23v-24c-39 0-71-32-71-71v-47c0-13 10-24 23-24h119v-24c0-13-10-23-23-23h-96c-13 0-23-11-23-24 0-13 10-24 23-24h48v-23c0-13 11-24 24-24 13 0 24 11 24 24v23c39 0 71 32 71 71v48c0 13-11 23-24 23h-119v24c0 13 11 24 24 24h95c13 0 24 10 24 23 0 13-11 24-24 24h-47v24c0 13-11 23-24 23z m-429-118c13 0 24-11 24-24 0-13-11-23-24-23-13 0-24 10-24 23 0 13 11 24 24 24z m857 0c13 0 24-11 24-24 0-13-11-23-24-23-13 0-24 10-24 23 0 13 11 24 24 24z m-857-332c13 0 24-10 24-23 0-13-11-24-24-24-13 0-24 11-24 24 0 13 11 23 24 23z m857 0c13 0 24-10 24-23 0-13-11-24-24-24-13 0-24 11-24 24 0 13 11 23 24 23z" horiz-adv-x="1023" />

<glyph glyph-name="donation-card" unicode="&#xe820;" d="M956 297h-225c2 3 4 6 6 9 29 55 20 121-17 166l-77 135c-43 80-117 87-189 94-10 1-21 2-31 3-73 9-87 16-140 45-6 4-13 7-20 11 1 7 0 15-2 22-4 12-12 23-24 29l-63 33c-12 6-25 8-38 4-12-4-23-12-29-24l-98-183c-6-11-7-24-3-37 4-13 12-23 24-29l63-34c8-4 16-5 23-5 18 0 35 9 44 26l1 1c20-12 32-24 42-41 32-50 62-65 92-79 11-5 20-10 30-16l129-80c1-1 2-2 3-2 4-17 11-33 20-48h-204c-11 0-20-9-20-20v-366c0-33 28-61 62-61h599c34 0 62 28 62 61v366c0 11-9 20-20 20z m-254 28c-5-11-13-20-21-28h-154c-10 10-19 22-25 35 2 0 4 0 5 1 12 3 22 11 29 25 13 24 8 65-10 97 34 34 86 42 130 19 54-28 75-95 46-149z m-201 161l-65 67c0 0 0 0 0 1 2 0 5 1 11 2 51 9 66-6 90-45-13-7-25-15-36-25z m-376 94c-2-5-8-7-13-4l-64 33c0 0 0 0 0 0-3 2-4 5-5 6 0 2-1 5 1 8l98 183c1 3 4 4 6 5 0 0 1 0 3 0 1 0 3 0 4-1l64-34c3-1 4-4 5-6 0-1 1-4-1-7l-98-183z m350-200l-129 80c-12 7-23 12-34 18-28 13-50 24-75 65-16 25-34 41-58 55l68 126c6-3 12-6 17-9 54-29 74-40 154-50 11-1 22-2 32-3 70-7 125-12 158-74 0 0 0 0 1 0l38-68c-23 7-48 8-72 4-29 48-55 84-135 71-24-4-38-13-44-28-3-9-4-23 11-40 0 0 0 0 0-1l72-73c22-24 30-64 22-77-2-4-4-5-4-5-1-1-6-1-22 9z m439-491h-599c-13 0-23 10-23 22v231h107c10 0 19 9 19 20 0 10-9 19-19 19h-107v77h645v-77h-362c-11 0-20-9-20-19 0-11 9-20 20-20h362v-231c0-12-11-22-23-22z" horiz-adv-x="980" />

<glyph glyph-name="donation" unicode="&#xe821;" d="M215 795c32 35 77 55 126 55 55 0 103-25 138-74 3-3 5-7 8-10 2 3 4 7 7 10 35 49 83 74 138 74 49 0 94-20 127-55 31-34 48-80 48-128 0-53-21-101-66-153-39-45-95-91-160-145-24-20-49-40-75-62-6-5-12-7-19-7-7 0-14 2-19 7-27 22-52 42-76 62-41 35-77 64-109 93-60 56-116 120-116 205 0 48 17 94 48 128z m109-291c30-28 65-57 106-91 18-15 37-30 57-47 19 17 38 32 56 47 128 106 205 169 205 254 0 72-50 126-116 126-35 0-65-17-89-49-20-26-28-53-28-54-4-12-15-21-28-21-13 0-25 9-29 21 0 1-29 103-117 103-66 0-116-54-116-126 0-52 28-98 99-163z m-236-231c24 0 48-10 64-28l86-90c12 35 45 60 84 60h136c19 0 37 7 51 19 77 66 192 67 269 2 16 22 42 37 72 37h121c16 0 29-13 29-29v-344c0-16-13-29-29-29h-121c-27 0-50 12-66 30l-18-5c-59-17-120-25-182-25h-262c-64 0-125 30-164 80l-140 184c0 0 0 0 0 0-12 15-18 33-18 52 0 47 40 86 88 86z m732-316c0-16 13-28 30-28h91v286h-91c-17 0-30-13-30-28v-230z m-755 212l0 0 140-183c28-36 72-57 117-57h262c56 0 112 7 166 22l12 3c0 1 0 2 0 3v217l-21 17c-55 48-138 48-193 0-25-21-57-33-90-33h-136c-16 0-29-13-29-29 0-15 13-28 29-28h209c16 0 29-13 29-29 0-16-13-29-29-29h-228c-25 0-48 10-65 28l-129 135c-5 6-13 9-21 9-16 0-29-13-29-28 0-7 2-13 6-18z" horiz-adv-x="1000" />

<glyph glyph-name="spread-love" unicode="&#xe822;" d="M996 728c-7 7-16 10-26 10-19 0-35-16-35-35v-236c0-37-10-73-29-105-1-1-1-2-2-2 0-1-1-1-1-2 0 0 0-1-1-1-6-11-14-20-22-29l-132-142c-3-4-8-5-12-5-4 0-8 1-12 4-6 6-7 17 0 23l131 142c7 7 13 16 19 24 0 0 0 1 1 1h0c0 1 0 1 1 2 0 0 0 1 1 1 6 13 4 28-6 38-14 13-35 13-48 0-4-3-55-55-98-99-32-33-60-62-60-62-54-55-83-130-83-212v-105h222c3 54 25 108 60 146l91 99c33 36 51 82 51 131v389c0 9-3 18-10 25z m-506-845c-1 2-1 4-1 6v0c-3 11-13 18-25 18h-311c-14 0-25-11-25-25v-25h362v25c0 1 0 1 0 1v0z m366 22h-310c-10 0-20-7-23-17v0c0-2 0-4 0-6v-27h358v26c0 13-11 24-25 24z m-651 36h224v102c0 79-31 155-87 212 0 0-3 3-72 75-39 41-80 83-84 86-13 13-34 13-48 0-10-10-12-25-6-38 1 0 1-1 1-1 1-1 1-1 1-2h0c1 0 1-1 1-1 6-8 12-17 19-24l131-142c7-6 6-17 0-23-4-3-8-4-12-4-4 0-9 1-12 5l-132 142c-8 9-16 18-22 29-1 0-1 1-1 1 0 1-1 1-1 2-1 0-1 1-2 2-19 32-29 68-29 105v236c0 19-16 35-35 35-10 0-19-3-26-10-7-7-10-16-10-25v-389c0-49 18-95 51-131l91-99c34-37 56-90 60-143z m192 710l34 51c3 4 9 7 14 7 6 0 11-3 14-8l46-76 63 78c3 3 7 6 12 6 5 0 9-2 13-5l53-53h58c31 46 25 109-15 149-42 42-109 47-156 11-6-5-15-5-21 0-21 16-46 24-72 24-30 0-61-12-84-35-40-40-46-103-15-149h56z m276-34h-34c-4 0-9 2-12 5l-45 45-66-81c-3-4-8-6-13-6 0 0-1 0-1 0-5 0-10 3-13 8l-45 73-24-36c-3-5-8-8-14-8h-34l149-148c0 0 1-1 2-1 0 0 1 1 1 1l149 148z m82 0c10 0 17 8 17 17 0 9-7 17-17 17h-13c-4-9-9-18-16-26-2-3-4-5-6-8h35z m-485 0h55c-2 3-4 5-6 8-6 8-12 17-16 26h-33c-9 0-16-8-16-17 0-9 7-17 16-17z" horiz-adv-x="1016" />

<glyph glyph-name="support-heart" unicode="&#xe824;" d="M790 843c-108 0-206-66-253-167-47 101-145 167-254 167-156 0-283-136-283-302 0-142 123-269 222-370l300-308c4-4 10-6 15-6 5 0 10 2 14 6l301 308c99 101 222 228 222 370 0 166-127 302-284 302z m-700-155l50 52c15 17 38 24 60 20l14-3 134-45c1 0 1 0 2 0 15-4 15-9 15-14 0-1-1-4-2-5-2-1-6-2-13-1l-51 9c-7 1-15-2-20-8-4-6-6-14-4-22l0 0c1-4 3-7 6-9l123-132c3-4 3-9 0-12-3-3-8-3-11 0 0 0 0 0 0 0 0 0 0 0 0 0l-87 92c-8 9-22 9-30 0-9-9-9-23 0-32l87-92c0 0 0 0 0 0l33-36c2-2 3-5 3-6 0-1-1-4-3-6-2-2-4-2-5-2-1 0-4 0-6 2l-20 22-106 113c-9 9-22 9-31 0-8-8-8-23 0-32l107-113 0 0c3-3 3-8 0-12-3-3-8-3-11 0l-69 73-48 52c-9 9-22 9-31 0-8-9-8-23 0-32l49-52c0 0 0 0 0 0l0 0c2-2 2-5 2-6 0-1 0-4-2-6-2-2-4-2-5-2-2 0-4 0-6 2l-113 121c-1 1-1 1-2 1 0 1-31 30-32 66-1 19 7 37 23 55z m738-477l-50-52c-16-17-32-25-49-25 0 0-1 0-2 0-34 1-61 34-61 34-1 1-1 1-1 2l-114 121c-2 2-2 4-2 6 0 1 0 3 2 6 2 2 4 2 6 2 1 0 3 0 5-2 0 0 0 0 0 0l49-52c4-5 9-7 15-7 5 0 11 2 15 7 8 9 8 23 0 32l-49 52-68 73c-3 3-3 8 0 11 3 4 8 4 11 0l0 0 106-113c4-4 10-7 15-7 6 0 11 3 15 7 9 9 9 24 0 32l-106 114c0 0 0 0 0 0l-20 22c-3 3-3 8 0 11 3 4 8 4 11 0l33-35c0 0 0 0 0 0l85-91c4-4 9-7 15-7 5 0 11 2 15 7 8 9 8 23 0 32l-85 91c0 0 0 0 0 0 0 0 0 0 0 0l0 0c-2 2-2 4-2 6 0 1 0 3 2 6 2 2 5 2 6 2 1 0 3 0 5-2l124-132c2-3 5-5 9-6l0 0c7-2 15-1 21 4 5 6 8 14 7 21l-9 55c-1 8 0 12 2 14 1 1 3 1 4 1 4 0 9 0 13-15 0-1 0-1 0-2l43-144 2-14c4-24-3-48-18-65z m62 64c-1 3-1 6-2 9l-2 15c0 1 0 2-1 4l-43 144c-10 44-38 50-54 50-14 0-28-6-37-18-6-7-12-19-12-37l-78 84c-10 10-23 16-36 16-14 0-26-6-36-16-2-2-3-4-5-6-20 19-50 18-69-2-15-16-19-39-12-58-3-3-6-5-9-8-20-21-20-56 0-77l33-35c-2-1-4-3-6-5-10-10-15-24-15-38 0-15 5-28 15-38l113-121c5-6 36-41 79-49-76-78-147-149-176-178-37 36-138 136-238 244-15 16-31 32-47 49-93 95-209 214-209 337 0 9 0 18 1 26 11-18 24-30 27-34l113-120c9-10 22-16 36-16 13 0 26 6 35 16 2 2 4 4 5 6l33-35c10-10 23-16 36-16 13 0 26 6 36 16 3 3 5 6 7 10 6-2 12-4 19-4 13 0 26 6 36 16 9 10 14 24 14 38 0 14-4 26-13 36 3 2 4 4 6 6 20 21 20 55 0 76l-78 84c17 0 28 6 35 13 10 9 16 23 16 39 0 17-6 47-46 58l-115 38c12 2 25 4 37 4 110 0 205-79 233-192 3-10 11-17 21-17 10 0 18 7 21 17 27 113 123 192 232 192 133 0 241-116 241-257 0-94-68-186-141-266z m92 292c-12 0-22-10-22-23 0-21-3-41-9-61-4-12 1-25 13-29 2-1 4-1 7-1 9 0 17 6 20 15 8 24 12 50 12 76 0 13-9 23-21 23z m-11 23c2 0 5 0 7 1 11 4 17 17 13 29-30 91-111 152-202 152-48 0-93-16-131-48-10-8-11-22-4-32 7-10 21-12 30-4 30 25 67 39 105 39 73 0 137-49 162-122 3-10 11-15 20-15z m-648-337c-8 9-22 9-30 0-9-9-8-24 0-32l34-36c4-4 10-7 15-7 6 0 11 3 16 7 8 9 8 24-1 33l-34 35z m57-91c-8-10-8-24 1-33l145-152c4-4 10-6 15-6 6 0 11 2 15 7 9 9 9 23 0 32l-145 152c-9 9-22 9-31 0z" horiz-adv-x="1091" />

<glyph glyph-name="education" unicode="&#xe829;" d="M916 193v270c0 0 0 0 0 0 0 24-13 44-34 54l-368 172c-25 11-53 11-77 0l-368-172c-21-10-35-30-35-54 0-23 14-44 35-54l86-40v-134c0-43 24-84 62-106l71-41c58-33 122-50 187-50 65 0 130 17 188 50l71 41c38 22 61 63 61 106v134l65 30v-206c-28-5-50-30-50-59v-72c0-33 27-60 60-60h36c33 0 60 27 60 60v72c0 29-22 54-50 59z m-177 42c0-23-13-46-33-57l-71-41c-99-57-221-57-319 0l-71 41c-20 11-33 34-33 57v108l225-105c12-6 25-9 38-9 13 0 27 3 39 9l225 105 0-108z m119 225l-368-172c-9-4-20-4-30 0l-367 172c-1 0-2 1-2 3 0 2 1 3 2 3l367 172c5 2 10 3 15 3 5 0 10-1 15-3l368-172c1 0 2 0 2-3 0-2-1-3-2-3z m51-398c0-2-1-3-3-3h-36c-2 0-3 1-3 3v72c0 2 1 3 3 3h36c2 0 3-1 3-3v-72z" horiz-adv-x="1000" />

<glyph glyph-name="food" unicode="&#xe82a;" d="M992 366c0 9-5 17-13 22 16 62 17 127 2 190-2 10-10 18-20 19-33 6-67 8-101 7-5 59-54 107-113 110-6 110-154 154-220 66-60 11-118-24-137-82-93 20-189-30-226-118-106 28-197-98-137-190-11-3-19-13-19-24-11-152 66-299 205-365v-55c0-40 33-73 73-73h428c40 0 73 33 73 73v55c139 66 216 214 205 365z m-56 184c10-53 7-107-8-159h-116l76 74c24 23-12 60-35 36l-113-110h-155c69 121 215 186 351 159z m-407-159h-132c-30 56-9 127 47 157 56 32 135 7 161-53-31-30-57-65-76-104z m-58 332c18 10 39 12 57 5 12-4 26 1 32 12 39 72 151 32 136-49-2-13 7-26 20-29 15 0 30 4 44-1 28-8 48-33 51-61-61-10-118-34-167-71-26 45-73 77-124 81-21 31-49 56-82 72 5 17 17 32 33 41z m-401-227c19 34 64 47 99 29 12-5 27 0 33 12 26 113 178 154 257 70-94-23-149-125-116-216h-248c-36 22-47 69-25 105z m872-168c0-125-75-239-190-288-9-4-15-13-15-23v-71c0-12-10-23-23-23h-428c-13 0-23 11-23 23v71c0 10-6 19-15 23-120 51-194 171-190 301h884v-13z" horiz-adv-x="1000" />

<glyph glyph-name="health" unicode="&#xe82b;" d="M750 558h-500c-17 0-32 7-44 19-12 11-18 27-18 44v104c0 17 6 33 18 44 12 12 27 19 44 19h500c17 0 33-7 44-19 12-11 19-27 19-44v-104c0-17-7-33-19-44-11-12-27-19-44-19z m-500 188c-5 0-11-2-15-6-4-4-6-9-6-15v-104c0-6 2-11 6-15 4-4 10-6 15-6h500c6 0 11 2 15 6 4 4 6 9 6 15v104c0 6-2 11-6 15-4 4-9 6-15 6h-500z m250-667c-17 0-32 7-44 19-12 11-18 27-18 44v21h-21c-17 0-33 6-44 18-12 12-19 27-19 44 0 17 7 33 19 44 11 12 27 19 44 19h21v20c0 17 6 33 18 45 12 11 27 18 44 18 17 0 33-7 44-18 12-12 19-28 19-45v-20h20c17 0 33-7 45-19 11-11 18-27 18-44 0-17-7-32-18-44-12-12-28-18-45-18h-20v-21c0-17-7-33-19-44-11-12-27-19-44-19z m-83 167c-6 0-11-2-15-6-4-4-6-9-6-15 0-5 2-11 6-15 4-4 9-6 15-6h41c6 0 11-2 15-6 4-4 6-9 6-15v-41c0-6 2-11 6-15 4-4 10-6 15-6 6 0 11 2 15 6 4 4 6 9 6 15v41c0 6 2 11 6 15 4 4 9 6 15 6h41c6 0 11 2 15 6 4 4 6 10 6 15 0 6-2 11-6 15-4 4-9 6-15 6h-41c-6 0-11 2-15 6-4 4-6 9-6 15v41c0 6-2 11-6 15-4 4-9 6-15 6-5 0-11-2-15-6-4-4-6-9-6-15v-41c0-6-2-11-6-15-4-4-9-6-15-6h-41z m0 437c-6 0-11 3-15 6-4 4-6 10-6 15v63c0 5 2 11 6 14 4 4 9 7 15 7 5 0 11-3 14-7 4-3 7-9 7-14v-63c0-5-3-11-7-15-3-3-9-6-14-6z m-84-20c-5 0-10 2-14 6-4 4-6 9-6 14v84c0 5 2 11 6 14 4 4 9 7 14 7 6 0 11-3 15-7 4-3 6-9 6-14v-84c0-5-2-10-6-14-4-4-9-6-15-6z m250 20c-5 0-10 3-14 6-4 4-6 10-6 15v63c0 5 2 11 6 14 4 4 9 7 14 7 6 0 11-3 15-7 4-3 6-9 6-14v-63c0-5-2-11-6-15-4-3-9-6-15-6z m-83-20c-5 0-11 2-15 6-4 4-6 9-6 14v84c0 5 2 11 6 14 4 4 10 7 15 7 6 0 11-3 15-7 4-3 6-9 6-14v-84c0-5-2-10-6-14-4-4-9-6-15-6z m167 0c-6 0-11 2-15 6-4 4-6 9-6 14v84c0 5 2 11 6 14 4 4 9 7 15 7 5 0 11-3 14-7 4-3 7-9 7-14v-84c0-5-3-10-7-14-3-4-9-6-14-6z m187-646h-708c-6 0-11 2-15 6-4 4-6 9-6 15v375c0 5 2 10 6 14 4 4 9 6 15 6h708c6 0 11-2 15-6 4-4 6-9 6-14v-375c0-6-2-11-6-15-4-4-9-6-15-6z m-687 41h666v334h-666v-334z m604-146h-542c-27 0-54 11-73 31-20 20-31 46-31 74v389c0 18 5 36 14 52 9 16 23 29 39 38l93 54v29c0 6 2 11 6 15 4 4 9 6 15 6h416c6 0 11-2 15-6 4-4 6-9 6-15v-29l94-54c15-9 29-22 38-38 9-16 14-34 14-52v-389c0-28-11-54-30-74-20-20-46-31-74-31z m-458 646v-20c0-4-1-8-3-11-2-3-5-6-8-8l-104-59c-9-5-17-13-23-23-5-9-8-20-8-31v-389c0-17 6-33 18-45 12-11 28-18 44-18h542c16 0 32 7 44 18 12 12 18 28 18 45v389c0 11-3 22-8 31-6 10-14 18-23 23l-104 59c-3 2-6 5-8 8-1 3-2 7-2 11v20h-375z" horiz-adv-x="1000" />

<glyph glyph-name="circle-arrow" unicode="&#xe82c;" d="M56 199c-6 17 4 34 21 40 17 5 36-4 41-21 55-166 215-287 405-287 234 0 424 185 424 412 0 228-190 412-424 412-190 0-350-120-405-287-5-16-24-26-41-20-17 5-27 23-21 39 63 192 248 331 467 331 270 0 490-212 490-475 0-262-220-475-490-475-219 0-404 139-467 331z m406-39c-13-12-13-32-1-45 13-12 34-13 46 0l218 206c7 5 10 14 10 22 0 9-3 17-10 23l-218 206c-12 12-33 12-46-1-12-12-12-32 1-45l160-151h-557c-18 0-32-14-32-32 0-17 14-31 32-31h557l-160-152z" horiz-adv-x="1045" />

<glyph glyph-name="message-two" unicode="&#xe82d;" d="M960 222c-13 0-24-11-24-25v-221c0-42-33-75-74-75h-686c-41 0-74 33-74 75v649c0 41 33 74 74 75h217c14 0 25 11 25 24 0 14-11 25-25 25h-217c-68 0-122-55-123-124v-649c1-69 55-125 123-125h686c68 0 123 56 123 125v221c0 14-11 25-25 25z m15 591c-43 44-113 44-156 0l-436-444c-3-3-5-7-7-11l-57-211c-2-8 0-18 6-24 7-6 16-9 24-6l207 58c5 1 8 3 11 6l437 445c43 44 43 114 0 158l-29 29z m-539-460l357 364 116-118-358-363-115 117z m-23-47l92-94-127-36 35 130z m556 355l-26-26-115 117 26 26c24 25 63 25 86 0l29-29c24-24 24-64 0-88z" horiz-adv-x="1000" />

<glyph glyph-name="user-two" unicode="&#xe82e;" d="M432 368c65 0 121 24 167 71 46 47 69 104 69 170 0 66-23 124-69 171-46 46-102 70-167 70-65 0-122-24-168-71-46-46-69-104-69-170 0-66 23-123 69-170 47-47 103-71 168-71z m-127 370c36 36 77 53 127 53 50 0 91-17 126-53 36-36 53-78 53-129 0-51-17-93-53-129-35-36-76-53-126-53-50 0-91 17-127 53-35 36-52 78-52 129 0 51 17 93 52 129z m541-657c-2 20-4 41-8 63-4 23-9 44-16 64-6 20-14 40-25 59-11 20-24 37-39 51-15 15-34 27-55 36-22 9-46 13-71 13-10 0-20-4-39-17-11-7-25-16-40-26-13-8-30-16-52-23-21-7-42-11-63-11-21 0-43 4-64 11-21 7-39 15-51 23-15 10-29 19-40 26-19 13-29 17-39 17-25 0-49-4-71-13-21-9-40-21-55-36-15-14-28-31-39-51-11-19-19-39-26-59-6-20-11-41-15-64-4-22-7-43-8-63-1-19-2-39-2-59 0-52 16-95 48-126 32-30 74-46 125-46h473c51 0 93 16 125 46 32 31 49 74 49 126 0 20-1 40-2 59z m-86-142c-21-21-49-30-86-30h-473c-36 0-64 9-85 30-20 20-30 47-30 83 0 19 0 37 1 55 2 17 4 37 8 57 3 20 8 39 13 56 5 16 12 33 21 48 8 15 18 28 28 38 10 10 23 18 37 23 14 6 29 9 46 9 2-1 5-3 11-7 12-8 26-16 41-26 17-11 39-21 65-30 26-9 54-13 81-13 27 0 54 4 81 13 26 9 48 19 65 30 15 10 29 18 41 26 5 4 9 6 11 7 17 0 32-3 45-9 15-5 27-13 37-23 11-10 20-23 29-38 8-15 16-32 21-48 5-17 10-36 13-56 4-20 6-40 7-57v0c2-18 2-36 2-55 0-36-10-63-30-83z" horiz-adv-x="895" />
</font>
</defs>
</svg>
